<svg width="66" height="66" viewBox="0 0 66 66" fill="none" xmlns="http://www.w3.org/2000/svg">
<path d="M25.5483 54.2581C25.5483 58.5335 29.0148 62 33.2903 62C37.5658 62 41.0322 58.5335 41.0322 54.2581" stroke="white" stroke-width="4" stroke-miterlimit="10" stroke-linejoin="round"/>
<path d="M33.2903 7.80645C23.669 7.80645 15.871 15.6045 15.871 25.2258V42.6452L12 48.4516V54.2581H54.5806V48.4516L50.7097 42.6452V25.2258C50.7097 15.6045 42.9116 7.80645 33.2903 7.80645Z" stroke="white" stroke-width="4" stroke-miterlimit="10" stroke-linejoin="round"/>
<path d="M15.8711 42.6452H37.1614" stroke="white" stroke-width="4" stroke-miterlimit="10" stroke-linejoin="round"/>
<path d="M41.0322 42.6452H44.9032" stroke="white" stroke-width="4" stroke-miterlimit="10" stroke-linejoin="round"/>
<path d="M33.2904 2C31.1517 2 29.4194 3.73226 29.4194 5.87097V9.74194H37.1614V5.87097C37.1614 3.73226 35.4291 2 33.2904 2Z" fill="white"/>
</svg>
