<svg width="167" height="167" viewBox="0 0 167 167" fill="none" xmlns="http://www.w3.org/2000/svg">
<path d="M83.3472 90.3249C87.178 90.3249 90.2834 87.2195 90.2834 83.3887C90.2834 79.558 87.178 76.4526 83.3472 76.4526C79.5165 76.4526 76.4111 79.558 76.4111 83.3887C76.4111 87.2195 79.5165 90.3249 83.3472 90.3249Z" stroke="#0F172A" stroke-width="13.8722" stroke-linecap="round" stroke-linejoin="round"/>
<path d="M83.3472 138.878C87.178 138.878 90.2834 135.773 90.2834 131.942C90.2834 128.111 87.178 125.006 83.3472 125.006C79.5165 125.006 76.4111 128.111 76.4111 131.942C76.4111 135.773 79.5165 138.878 83.3472 138.878Z" stroke="#0F172A" stroke-width="13.8722" stroke-linecap="round" stroke-linejoin="round"/>
<path d="M83.3472 41.7721C87.178 41.7721 90.2834 38.6667 90.2834 34.836C90.2834 31.0053 87.178 27.8999 83.3472 27.8999C79.5165 27.8999 76.4111 31.0053 76.4111 34.836C76.4111 38.6667 79.5165 41.7721 83.3472 41.7721Z" stroke="#0F172A" stroke-width="13.8722" stroke-linecap="round" stroke-linejoin="round"/>
</svg>
