<svg width="168" height="167" viewBox="0 0 168 167" fill="none" xmlns="http://www.w3.org/2000/svg">
<path d="M38.7637 34.7361H128.933C129.932 35.0864 130.838 35.6607 131.58 36.4151C132.323 37.1694 132.883 38.0837 133.218 39.0879C133.553 40.0922 133.653 41.1597 133.511 42.2088C133.37 43.2579 132.99 44.2606 132.401 45.1403L97.7206 83.2889V131.842L69.9762 111.033V83.2889L35.2956 45.1403C34.7067 44.2606 34.3269 43.2579 34.1853 42.2088C34.0438 41.1597 34.1442 40.0922 34.479 39.0879C34.8137 38.0837 35.3739 37.1694 36.1166 36.4151C36.8593 35.6607 37.7647 35.0864 38.7637 34.7361Z" stroke="#94A3B8" stroke-width="10.4042" stroke-linecap="round" stroke-linejoin="round"/>
</svg>
