<svg width="60" height="60" viewBox="0 0 60 60" fill="none" xmlns="http://www.w3.org/2000/svg">
<path d="M55.4242 10.5372L49.068 4.18108C47.0853 2.19843 43.8698 2.19843 41.8871 4.18108L35.9074 10.1608L49.4445 23.6978L55.4242 17.7181C57.4067 15.7355 57.4067 12.5209 55.4242 10.5372ZM29.3271 8.36633C27.6754 6.71467 24.9981 6.71467 23.3464 8.36633L10.7864 20.9274C10.1255 21.5883 10.1255 22.6595 10.7864 23.3193L13.1793 25.7122C13.8402 26.3731 14.9113 26.3731 15.5722 25.7122L26.3389 14.9456L28.7318 17.3375L12.7056 33.3626C7.15453 38.9137 3.65739 46.1884 2.78915 53.9906L2.78597 54.0148C2.60621 55.6306 3.97133 56.9969 5.58708 56.8182C13.3994 55.9554 20.6848 52.457 26.2426 46.8996L47.0515 26.0907L38.2993 17.3385L29.3271 8.36633Z" fill="white"/>
</svg>
