<svg width="80" height="79" viewBox="0 0 80 79" fill="none" xmlns="http://www.w3.org/2000/svg">
<g clip-path="url(#clip0_138_644)">
<path d="M78.6579 72.2273L59.9858 53.5552C59.632 53.2014 59.1706 53.0169 58.6784 53.0169H56.6482C61.4931 47.4029 64.4308 40.0971 64.4308 32.0992C64.4308 14.4268 50.1114 0.107422 32.439 0.107422C14.7666 0.107422 0.447266 14.4268 0.447266 32.0992C0.447266 49.7715 14.7666 64.0909 32.439 64.0909C40.4369 64.0909 47.7428 61.1532 53.3567 56.3083V58.3386C53.3567 58.8307 53.5566 59.2922 53.895 59.6459L72.5671 78.318C73.29 79.0409 74.4589 79.0409 75.1818 78.318L78.6579 74.842C79.3807 74.1191 79.3807 72.9502 78.6579 72.2273ZM32.439 56.7082C18.8425 56.7082 7.82998 45.6957 7.82998 32.0992C7.82998 18.5027 18.8425 7.49013 32.439 7.49013C46.0355 7.49013 57.048 18.5027 57.048 32.0992C57.048 45.6957 46.0355 56.7082 32.439 56.7082Z" fill="#8B95AA"/>
</g>
<defs>
<clipPath id="clip0_138_644">
<rect width="78.7489" height="78.7489" fill="white" transform="translate(0.447266 0.107422)"/>
</clipPath>
</defs>
</svg>
