<svg width="288" height="288" viewBox="0 0 288 288" fill="none" xmlns="http://www.w3.org/2000/svg">
<path d="M168.06 96.3446V72.4501C168.06 66.1129 165.543 60.0353 161.062 55.5542C156.58 51.0731 150.503 48.5557 144.166 48.5557H60.5351C54.1979 48.5557 48.1202 51.0731 43.6391 55.5542C39.1581 60.0353 36.6406 66.1129 36.6406 72.4501V215.817C36.6406 222.154 39.1581 228.232 43.6391 232.713C48.1202 237.194 54.1979 239.711 60.5351 239.711H144.166C150.503 239.711 156.58 237.194 161.062 232.713C165.543 228.232 168.06 222.154 168.06 215.817V191.922" stroke="#64748B" stroke-width="19.55" stroke-linecap="round" stroke-linejoin="round"/>
<path d="M84.4219 144.134H251.683M251.683 144.134L215.841 108.292M251.683 144.134L215.841 179.975" stroke="#64748B" stroke-width="19.55" stroke-linecap="round" stroke-linejoin="round"/>
</svg>
