<svg width="154" height="154" viewBox="0 0 154 154" fill="none" xmlns="http://www.w3.org/2000/svg">
<path d="M89.48 51.6463V38.9301C89.48 35.5575 88.1403 32.3231 85.7555 29.9384C83.3708 27.5536 80.1364 26.2139 76.7638 26.2139H32.2571C28.8845 26.2139 25.6501 27.5536 23.2654 29.9384C20.8806 32.3231 19.5409 35.5575 19.5409 38.9301V115.227C19.5409 118.6 20.8806 121.834 23.2654 124.219C25.6501 126.604 28.8845 127.943 32.2571 127.943H76.7638C80.1364 127.943 83.3708 126.604 85.7555 124.219C88.1403 121.834 89.48 118.6 89.48 115.227V102.511" stroke="#64748B" stroke-width="10.4042" stroke-linecap="round" stroke-linejoin="round"/>
<path d="M44.973 77.0782H133.986M133.986 77.0782L114.912 58.0039M133.986 77.0782L114.912 96.1525" stroke="#64748B" stroke-width="10.4042" stroke-linecap="round" stroke-linejoin="round"/>
</svg>
