<svg width="168" height="167" viewBox="0 0 168 167" fill="none" xmlns="http://www.w3.org/2000/svg">
<path d="M138.99 72.5224C138.99 114.454 83.5016 150.396 83.5016 150.396C83.5016 150.396 28.0127 114.454 28.0127 72.5224C28.0127 58.2239 33.8588 44.511 44.265 34.4005C54.6712 24.2899 68.785 18.6099 83.5016 18.6099C98.2182 18.6099 112.332 24.2899 122.738 34.4005C133.144 44.511 138.99 58.2239 138.99 72.5224Z" stroke="#94A3B8" stroke-width="10.4042" stroke-linecap="round" stroke-linejoin="round"/>
<path d="M84.1318 87.9708C93.7086 87.9708 101.472 80.2073 101.472 70.6306C101.472 61.0538 93.7086 53.2903 84.1318 53.2903C74.555 53.2903 66.7915 61.0538 66.7915 70.6306C66.7915 80.2073 74.555 87.9708 84.1318 87.9708Z" stroke="#94A3B8" stroke-width="10.4042" stroke-linecap="round" stroke-linejoin="round"/>
</svg>
