<svg width="159" height="159" viewBox="0 0 159 159" fill="none" xmlns="http://www.w3.org/2000/svg">
<path d="M121.905 67.0479C122.58 66.5114 123.584 67.0134 123.584 67.8609V103.246C123.584 107.831 119.863 111.552 115.278 111.552H43.2968C38.7114 111.552 34.9912 107.831 34.9912 103.246V67.8787C34.9912 67.0134 35.9775 66.5286 36.6696 67.0651C40.5456 70.0757 45.6846 73.9 63.3339 86.7218C66.9849 89.3865 73.1451 94.9924 79.2875 94.9579C85.4648 95.0101 91.7456 89.2826 95.2582 86.7218C112.908 73.9 118.029 70.0585 121.905 67.0479ZM79.2875 89.4037C83.3017 89.4731 89.0809 84.351 91.9882 82.24C114.949 65.5772 116.697 64.1238 121.992 59.9708C122.996 59.1922 123.584 57.9809 123.584 56.7007V53.413C123.584 48.8276 119.863 45.1074 115.278 45.1074H43.2968C38.7114 45.1074 34.9912 48.8276 34.9912 53.413V56.7007C34.9912 57.9809 35.5795 59.1749 36.5831 59.9708C41.8779 64.1066 43.6255 65.5772 66.5868 82.24C69.4941 84.351 75.2733 89.4731 79.2875 89.4037Z" fill="#333342"/>
</svg>
