<svg width="31" height="31" viewBox="0 0 31 31" fill="none" xmlns="http://www.w3.org/2000/svg">
<path d="M23.25 24.1571C23.25 20.2412 18.7292 19.375 15.5 19.375C12.2708 19.375 7.75 20.2412 7.75 24.1571M27.125 15.5C27.125 21.9203 21.9203 27.125 15.5 27.125C9.07969 27.125 3.875 21.9203 3.875 15.5C3.875 9.07969 9.07969 3.875 15.5 3.875C21.9203 3.875 27.125 9.07969 27.125 15.5ZM19.375 11.625C19.375 13.7651 17.6401 15.5 15.5 15.5C13.3599 15.5 11.625 13.7651 11.625 11.625C11.625 9.4849 13.3599 7.75 15.5 7.75C17.6401 7.75 19.375 9.4849 19.375 11.625Z" stroke="#A3A1FF" stroke-width="2.6" stroke-linecap="round" stroke-linejoin="round"/>
</svg>
