<svg width="158" height="159" viewBox="0 0 158 159" fill="none" xmlns="http://www.w3.org/2000/svg">
<path d="M78.9112 128.778C84.3252 128.778 88.7549 124.349 88.7549 118.935H69.0676C69.0676 124.349 73.448 128.778 78.9112 128.778ZM108.442 99.2474V74.6383C108.442 59.5284 100.37 46.8793 86.294 43.5325V40.1857C86.294 36.1006 82.9963 32.803 78.9112 32.803C74.8261 32.803 71.5285 36.1006 71.5285 40.1857V43.5325C57.4029 46.8793 49.3804 59.4792 49.3804 74.6383V99.2474L43.0315 105.597C39.9307 108.697 42.0963 114.013 46.4767 114.013H111.297C115.677 114.013 117.892 108.697 114.791 105.597L108.442 99.2474Z" fill="#333342"/>
<path d="M113.361 69.7166C126.953 69.7166 137.971 58.6987 137.971 45.1076C137.971 31.5164 126.953 20.4985 113.361 20.4985C99.7704 20.4985 88.7524 31.5164 88.7524 45.1076C88.7524 58.6987 99.7704 69.7166 113.361 69.7166Z" fill="#40BE88"/>
</svg>
