<svg width="31" height="31" viewBox="0 0 31 31" fill="none" xmlns="http://www.w3.org/2000/svg">
<path d="M5.1665 6.45833L12.9165 6.45833M12.9165 6.45833C12.9165 7.88507 14.0731 9.04167 15.4998 9.04167C16.9266 9.04167 18.0832 7.88507 18.0832 6.45833M12.9165 6.45833C12.9165 5.0316 14.0731 3.875 15.4998 3.875C16.9266 3.875 18.0832 5.0316 18.0832 6.45833M18.0832 6.45833L25.8332 6.45833M5.1665 15.5L20.6665 15.5M20.6665 15.5C20.6665 16.9267 21.8231 18.0833 23.2498 18.0833C24.6766 18.0833 25.8332 16.9267 25.8332 15.5C25.8332 14.0733 24.6766 12.9167 23.2498 12.9167C21.8231 12.9167 20.6665 14.0733 20.6665 15.5ZM10.3332 24.5417L25.8332 24.5417M10.3332 24.5417C10.3332 23.1149 9.17657 21.9583 7.74984 21.9583C6.3231 21.9583 5.1665 23.1149 5.1665 24.5417C5.1665 25.9684 6.3231 27.125 7.74984 27.125C9.17657 27.125 10.3332 25.9684 10.3332 24.5417Z" stroke="#A3A1FF" stroke-width="2.6" stroke-linecap="round"/>
</svg>
