<svg width="378" height="378" viewBox="0 0 378 378" fill="none" xmlns="http://www.w3.org/2000/svg">
<g clip-path="url(#clip0_137_494)">
<path fill-rule="evenodd" clip-rule="evenodd" d="M189.264 369.488C89.1769 369.488 8.7793 289.091 8.7793 189.004C8.7793 88.9171 89.1769 8.51953 189.264 8.51953C289.35 8.51953 369.748 88.9171 369.748 189.004C369.748 289.091 289.35 369.488 189.264 369.488ZM189.264 41.3349C107.225 41.3349 41.5946 106.966 41.5946 189.004C41.5946 271.042 107.225 336.673 189.264 336.673C271.302 336.673 336.933 271.042 336.933 189.004C336.933 106.966 271.302 41.3349 189.264 41.3349Z" fill="#10EE3C"/>
<path fill-rule="evenodd" clip-rule="evenodd" d="M115.436 172.586H263.105V205.401H115.436V172.586Z" fill="#10EE3C"/>
</g>
<defs>
<clipPath id="clip0_137_494">
<rect width="377.376" height="377.376" fill="white" transform="translate(0.570312 0.316406)"/>
</clipPath>
</defs>
</svg>
