<svg width="378" height="378" viewBox="0 0 378 378" fill="none" xmlns="http://www.w3.org/2000/svg">
<g clip-path="url(#clip0_137_513)">
<path fill-rule="evenodd" clip-rule="evenodd" d="M189.259 0.164062C84.6223 0.164062 0.570312 84.2161 0.570312 188.852C0.570312 293.488 84.6223 377.541 189.259 377.541C293.895 377.541 377.947 293.488 377.947 188.852C377.947 84.2161 293.895 0.164062 189.259 0.164062ZM189.259 343.234C103.491 343.234 34.8773 274.62 34.8773 188.852C34.8773 103.085 103.491 34.471 189.259 34.471C275.026 34.471 343.64 103.085 343.64 188.852C343.64 274.62 275.026 343.234 189.259 343.234Z" fill="white"/>
<path fill-rule="evenodd" clip-rule="evenodd" d="M206.412 103.086H172.105V214.584L249.296 255.752L266.45 224.876L206.412 193.999V103.086Z" fill="white"/>
</g>
<defs>
<clipPath id="clip0_137_513">
<rect width="377.376" height="377.376" fill="white" transform="translate(0.570312 0.164062)"/>
</clipPath>
</defs>
</svg>
