<svg width="310" height="310" viewBox="0 0 310 310" fill="none" xmlns="http://www.w3.org/2000/svg">
<path d="M222.612 131.291L222.663 131.239L222.714 131.187C229.608 124.055 229.753 112.646 222.612 105.505C215.526 98.4189 203.911 98.4189 196.826 105.505L136.718 165.613L113.174 142.07C106.089 134.984 94.4739 134.984 87.3882 142.07C80.3024 149.155 80.3024 160.77 87.3882 167.856L123.824 204.292C127.218 207.686 131.84 209.639 136.718 209.639C141.595 209.639 146.217 207.686 149.611 204.292L222.612 131.291ZM34.8333 154.834C34.8333 88.6332 88.7992 34.6673 155 34.6673C221.201 34.6673 275.167 88.6332 275.167 154.834C275.167 221.035 221.201 275.001 155 275.001C88.7992 275.001 34.8333 221.035 34.8333 154.834Z" fill="#17AF26" stroke="#17AF26" stroke-width="17.1667"/>
</svg>
