<svg width="21" height="20" viewBox="0 0 21 20" fill="none" xmlns="http://www.w3.org/2000/svg">
<path d="M11.9417 2.9252L13.4084 5.85853C13.6084 6.26686 14.1417 6.65853 14.5917 6.73353L17.25 7.1752C18.95 7.45853 19.35 8.69186 18.125 9.90853L16.0584 11.9752C15.7084 12.3252 15.5167 13.0002 15.625 13.4835L16.2167 16.0419C16.6834 18.0669 15.6084 18.8502 13.8167 17.7919L11.325 16.3169C10.875 16.0502 10.1334 16.0502 9.67505 16.3169L7.18338 17.7919C5.40005 18.8502 4.31671 18.0585 4.78338 16.0419L5.37505 13.4835C5.48338 13.0002 5.29171 12.3252 4.94171 11.9752L2.87505 9.90853C1.65838 8.69186 2.05005 7.45853 3.75005 7.1752L6.40838 6.73353C6.85005 6.65853 7.38338 6.26686 7.58338 5.85853L9.05005 2.9252C9.85005 1.33353 11.15 1.33353 11.9417 2.9252Z" stroke="#54576D" stroke-width="1.2" stroke-linecap="round" stroke-linejoin="round"/>
</svg>
