<svg width="21" height="20" viewBox="0 0 21 20" fill="none" xmlns="http://www.w3.org/2000/svg">
<path d="M4.3082 12.7502L8.0832 16.5252C9.6332 18.0752 12.1499 18.0752 13.7082 16.5252L17.3665 12.8668C18.9165 11.3168 18.9165 8.80016 17.3665 7.24183L13.5832 3.47516C12.7915 2.6835 11.6999 2.2585 10.5832 2.31683L6.41654 2.51683C4.74987 2.59183 3.42487 3.91683 3.34154 5.57516L3.14154 9.74183C3.09154 10.8668 3.51654 11.9585 4.3082 12.7502Z" stroke="#54576D" stroke-width="1.2" stroke-linecap="round" stroke-linejoin="round"/>
<path d="M8.74984 10.0002C9.90043 10.0002 10.8332 9.06742 10.8332 7.91683C10.8332 6.76624 9.90043 5.8335 8.74984 5.8335C7.59924 5.8335 6.6665 6.76624 6.6665 7.91683C6.6665 9.06742 7.59924 10.0002 8.74984 10.0002Z" stroke="#54576D" stroke-width="1.2" stroke-linecap="round"/>
</svg>
