<svg width="20" height="20" viewBox="0 0 20 20" fill="none" xmlns="http://www.w3.org/2000/svg">
<path d="M3.47483 12.7502L7.24983 16.5252C8.79983 18.0752 11.3165 18.0752 12.8748 16.5252L16.5332 12.8668C18.0832 11.3168 18.0832 8.80016 16.5332 7.24183L12.7498 3.47516C11.9582 2.6835 10.8665 2.2585 9.74983 2.31683L5.58316 2.51683C3.9165 2.59183 2.5915 3.91683 2.50816 5.57516L2.30816 9.74183C2.25816 10.8668 2.68316 11.9585 3.47483 12.7502Z" stroke="#54576D" stroke-width="1.2" stroke-linecap="round" stroke-linejoin="round"/>
<path d="M7.91659 9.99967C9.06718 9.99967 9.99992 9.06693 9.99992 7.91634C9.99992 6.76575 9.06718 5.83301 7.91659 5.83301C6.76599 5.83301 5.83325 6.76575 5.83325 7.91634C5.83325 9.06693 6.76599 9.99967 7.91659 9.99967Z" stroke="#54576D" stroke-width="1.2" stroke-linecap="round"/>
</svg>
