<svg width="13" height="13" viewBox="0 0 13 13" fill="none" xmlns="http://www.w3.org/2000/svg">
<path d="M7.36495 2.25482L8.24495 4.01482C8.36495 4.25982 8.68495 4.49482 8.95495 4.53982L10.55 4.80482C11.57 4.97482 11.81 5.71482 11.075 6.44482L9.83495 7.68482C9.62495 7.89482 9.50995 8.29982 9.57495 8.58982L9.92995 10.1248C10.21 11.3398 9.56495 11.8098 8.48995 11.1748L6.99495 10.2898C6.72495 10.1298 6.27995 10.1298 6.00495 10.2898L4.50995 11.1748C3.43995 11.8098 2.78995 11.3348 3.06995 10.1248L3.42495 8.58982C3.48995 8.29982 3.37495 7.89482 3.16495 7.68482L1.92495 6.44482C1.19495 5.71482 1.42995 4.97482 2.44995 4.80482L4.04495 4.53982C4.30995 4.49482 4.62995 4.25982 4.74995 4.01482L5.62995 2.25482C6.10995 1.29982 6.88995 1.29982 7.36495 2.25482Z" fill="#F2BC1B" stroke="#F2BC1B" stroke-width="1.5" stroke-linecap="round" stroke-linejoin="round"/>
</svg>
